<svg xmlns="http://www.w3.org/2000/svg" width="14.381" height="17.569" viewBox="0 0 14.381 17.569">
  <g id="delete" transform="translate(0.259 0.25)">
    <path id="Path_111" data-name="Path 111" d="M222.8,154.7a.4.4,0,0,0-.4.4v7.555a.4.4,0,0,0,.8,0V155.1A.4.4,0,0,0,222.8,154.7Zm0,0" transform="translate(-213.507 -148.519)" fill="#fff" stroke="#fff" stroke-width="0.5"/>
    <path id="Path_112" data-name="Path 112" d="M104.8,154.7a.4.4,0,0,0-.4.4v7.555a.4.4,0,0,0,.8,0V155.1A.4.4,0,0,0,104.8,154.7Zm0,0" transform="translate(-100.225 -148.519)" fill="#fff" stroke="#fff" stroke-width="0.5"/>
    <path id="Path_113" data-name="Path 113" d="M1.132,5.08v9.849a2.205,2.205,0,0,0,.586,1.521,1.969,1.969,0,0,0,1.428.618H10.71a1.968,1.968,0,0,0,1.428-.618,2.205,2.205,0,0,0,.586-1.521V5.08a1.527,1.527,0,0,0-.392-3H10.286v-.5A1.57,1.57,0,0,0,8.7,0H5.154A1.57,1.57,0,0,0,3.571,1.578v.5H1.524a1.527,1.527,0,0,0-.392,3ZM10.71,16.268H3.147a1.266,1.266,0,0,1-1.215-1.339V5.115h9.994v9.814a1.266,1.266,0,0,1-1.215,1.339ZM4.37,1.578A.77.77,0,0,1,5.154.8H8.7a.77.77,0,0,1,.784.78v.5H4.37Zm-2.846,1.3H12.333a.72.72,0,1,1,0,1.439H1.524a.72.72,0,1,1,0-1.439Zm0,0" transform="translate(0.003 0.002)" fill="#fff" stroke="#fff" stroke-width="0.5"/>
    <path id="Path_114" data-name="Path 114" d="M163.8,154.7a.4.4,0,0,0-.4.4v7.555a.4.4,0,0,0,.8,0V155.1A.4.4,0,0,0,163.8,154.7Zm0,0" transform="translate(-156.866 -148.519)" fill="#fff" stroke="#fff" stroke-width="0.5"/>
  </g>
</svg>
