<svg xmlns="http://www.w3.org/2000/svg" width="22" height="21" viewBox="0 0 22 21">
  <g id="Group_24760" data-name="Group 24760" transform="translate(0)">
    <rect id="Rectangle_5096" data-name="Rectangle 5096" width="22" height="21" transform="translate(0)" fill="none"/>
    <path id="Path_67052" data-name="Path 67052" d="M11.023,17.757a11.388,11.388,0,0,1-6.957-2.892C2.454,13.563,1,11.9,1,11.378S2.454,9.193,4.066,7.892A11.387,11.387,0,0,1,11.023,5,11.387,11.387,0,0,1,17.98,7.892c1.612,1.3,3.066,2.966,3.066,3.487s-1.454,2.185-3.066,3.487A11.388,11.388,0,0,1,11.023,17.757Zm0-.911a10.538,10.538,0,0,0,6.385-2.689A16.806,16.806,0,0,0,19.46,12.2a8.285,8.285,0,0,0,.551-.692c.072-.1.124-.2.124-.126s-.052-.022-.124-.126a8.284,8.284,0,0,0-.551-.692A16.806,16.806,0,0,0,17.408,8.6a10.538,10.538,0,0,0-6.385-2.689A10.538,10.538,0,0,0,4.638,8.6a16.809,16.809,0,0,0-2.053,1.96,8.294,8.294,0,0,0-.551.692c-.072.1-.124.2-.124.126s.052.022.124.126a8.294,8.294,0,0,0,.551.692,16.809,16.809,0,0,0,2.053,1.96A10.538,10.538,0,0,0,11.023,16.846Zm0-1.822a3.645,3.645,0,1,1,3.645-3.645A3.645,3.645,0,0,1,11.023,15.023Zm0-.911A2.734,2.734,0,1,0,8.29,11.378,2.734,2.734,0,0,0,11.023,14.112Z" transform="translate(-0.192 -0.789)" fill="#fff"/>
  </g>
</svg>
